<?xml version="1.0" standalone="no"?>
<!DOCTYPE svg PUBLIC "-//W3C//DTD SVG 20010904//EN"
 "http://www.w3.org/TR/2001/REC-SVG-20010904/DTD/svg10.dtd">
<svg version="1.0" xmlns="http://www.w3.org/2000/svg"
 width="260.000000pt" height="260.000000pt" viewBox="0 0 260.000000 260.000000"
 preserveAspectRatio="xMidYMid meet">
<metadata>
Created by potrace 1.14, written by Peter Selinger 2001-2017
</metadata>
<g transform="translate(0.000000,260.000000) scale(0.100000,-0.100000)"
fill="#000000" stroke="none">
<path d="M1626 1893 c-67 -11 -109 -27 -131 -48 -15 -14 -53 -69 -54 -77 -1
-5 -1 -9 -2 -10 -17 -57 -16 -398 1 -415 1 -2 3 -6 4 -10 4 -19 31 -60 50 -76
55 -49 109 -57 342 -57 104 0 198 0 209 0 11 0 57 0 103 0 l82 0 0 -135 0
-135 -793 0 -793 0 -62 -100 c-82 -131 -82 -130 -41 -130 319 -3 1698 2 1738
6 112 12 177 55 199 133 37 126 32 386 -8 476 -48 108 -84 117 -476 118 -270
0 -304 2 -305 16 -1 9 -2 63 -3 119 -1 84 2 105 14 111 8 4 175 6 372 5 196
-1 360 2 365 5 4 3 19 29 33 56 13 28 37 72 53 99 15 27 26 50 24 52 -2 2
-194 5 -427 6 -293 2 -445 -1 -494 -9z"/>
<path d="M748 1892 c-8 -2 -22 -17 -32 -35 -9 -18 -27 -48 -39 -68 -12 -20
-41 -69 -65 -110 -24 -41 -52 -87 -62 -104 -11 -16 -27 -43 -35 -58 -9 -16
-50 -86 -92 -155 -42 -70 -83 -140 -93 -157 -9 -16 -50 -84 -90 -150 -39 -66
-81 -136 -92 -155 -43 -75 -62 -105 -72 -112 -6 -4 -8 -8 -4 -8 4 0 -4 -16
-17 -37 -14 -20 -23 -38 -21 -40 8 -8 289 -4 296 4 4 4 27 44 50 88 24 44 59
109 79 145 21 36 46 82 56 103 11 20 23 37 28 37 4 0 5 5 2 10 -3 6 -1 10 6
10 7 0 10 3 6 6 -5 5 21 54 64 124 5 8 15 26 21 40 7 14 22 41 34 60 11 19 43
76 69 125 27 50 65 119 86 154 36 62 37 63 50 40 7 -13 20 -37 29 -54 9 -16
36 -66 60 -110 23 -44 58 -108 77 -142 l33 -63 -37 -1 c-21 -1 -75 -1 -120 -1
l-82 0 -66 -102 c-36 -56 -65 -107 -65 -112 0 -5 165 -9 405 -9 223 0 405 2
405 5 0 3 -6 14 -14 25 -7 11 -22 36 -33 55 -11 19 -75 127 -142 238 -66 112
-121 208 -121 213 0 5 -4 9 -9 9 -5 0 -13 10 -17 23 -4 12 -17 36 -30 53 -13
17 -24 34 -24 38 0 4 -13 26 -29 49 -15 23 -31 52 -35 65 -4 12 -12 22 -18 22
-6 0 -9 3 -5 6 3 4 -1 13 -9 22 -12 12 -43 15 -143 16 -70 1 -134 0 -143 -2z"/>
</g>
</svg>
